<?xml version="1.0" encoding="utf-8"?>
<!-- Generator: Adobe Illustrator 25.0.1, SVG Export Plug-In . SVG Version: 6.00 Build 0)  -->
<svg version="1.1" id="レイヤー_1" xmlns="http://www.w3.org/2000/svg" xmlns:xlink="http://www.w3.org/1999/xlink" x="0px"
	 y="0px" viewBox="0 0 100 50" style="enable-background:new 0 0 100 50;" xml:space="preserve">
<style type="text/css">
	.st0{fill:#FFFFFF;}
</style>
<g id="Layer_1">
	<path class="st0" d="M54.2,12.9h-2.6c-0.8,0-1.4-0.6-1.4-1.4V8.9c0-0.8,0.6-1.4,1.4-1.4h2.6c0.8,0,1.4,0.6,1.4,1.4v2.6
		C55.5,12.3,54.9,12.9,54.2,12.9z"/>
	<path class="st0" d="M46.7,9.2H44c-0.8,0-1.4-0.6-1.4-1.4V5.2c0-0.8,0.6-1.4,1.4-1.4h2.6c0.8,0,1.4,0.6,1.4,1.4v2.6
		C48,8.6,47.4,9.2,46.7,9.2z"/>
	<path class="st0" d="M38.8,11.4h-2.6c-0.8,0-1.4-0.6-1.4-1.4V7.4c0-0.8,0.6-1.4,1.4-1.4h2.6c0.8,0,1.4,0.6,1.4,1.4v2.6
		C40.2,10.8,39.5,11.4,38.8,11.4z"/>
	<path class="st0" d="M30.9,14.9h-2.6c-0.8,0-1.4-0.6-1.4-1.4v-2.6c0-0.8,0.6-1.4,1.4-1.4h2.6c0.8,0,1.4,0.6,1.4,1.4v2.6
		C32.3,14.3,31.7,14.9,30.9,14.9z"/>
	<path class="st0" d="M22.4,17h-2.6c-0.8,0-1.4-0.6-1.4-1.4V13c0-0.8,0.6-1.4,1.4-1.4h2.6c0.8,0,1.4,0.6,1.4,1.4v2.6
		C23.7,16.4,23.1,17,22.4,17z"/>
	<path class="st0" d="M14.5,13.3h-2.6c-0.8,0-1.4-0.6-1.4-1.4V9.3c0-0.8,0.6-1.4,1.4-1.4h2.6c0.8,0,1.4,0.6,1.4,1.4v2.6
		C15.9,12.7,15.2,13.3,14.5,13.3z"/>
	<rect x="11.7" y="24.6" class="st0" width="2.7" height="12.9"/>
	<path class="st0" d="M39.7,24.5c0-4.2-1.9-5.1-5.3-5.1H19.8v18h3v-6.8h11.2C39.4,30.6,39.7,28.3,39.7,24.5z M22.8,22h11.1
		c2.1,0,2.8,0.6,2.8,2.2v1.7c0,1.5-0.8,2.1-2.7,2.1H22.8V22z"/>
	<path class="st0" d="M53.4,37.5h2.7V29c0-4.2-3.3-4.5-6.8-4.5h-3.3c-3.9,0-5.4,1-5.4,3.5v0.9h2.7V28c0-0.6,0-1.3,2.8-1.3h3
		c3.4,0,4.2,0.4,4.2,2.2v1.4c-0.8-0.8-2-0.9-4.1-0.9H46c-3.5,0-5.9,0.2-5.9,3.5v0.8c0,2.8,1.3,4,4.3,4h4.9c2.3,0,3.4-0.2,4.1-0.8
		V37.5z M42.8,33.3c0-1.1,0.3-1.6,3.1-1.6h3.2c3.4,0,4.3,0.3,4.3,1.6v0.6c0,1.2-1,1.5-4.9,1.5h-2.7c-2.8,0-3-0.6-3-1.6L42.8,33.3z"
		/>
	<path class="st0" d="M66.8,24.4h-1.9c-1.3-0.1-2.6,0.4-3.5,1.2v-1.1h-2.6v12.9h2.7v-8.1c0-1.4,1.1-2.6,2.6-2.7c0.1,0,0.2,0,0.4,0
		h1.3c3.5,0,4,0.4,4,3.2v0.9h2.6V29C72.3,25.6,70.7,24.4,66.8,24.4z"/>
	<polygon class="st0" points="79.5,30.4 87.9,25 87.5,24.6 84,24.6 76.9,29.2 76.3,29.2 76.3,19.5 73.6,19.5 73.6,37.5 76.3,37.5 
		76.3,31.6 76.8,31.6 85.6,37.5 89.1,37.5 89.5,37.1 	"/>
	<path class="st0" d="M34.8,43h-2.2c-1.2,0-1.3-0.2-1.3-0.8c0-0.8,0.4-0.9,1.8-0.9H34c2,0,2,0.1,2,0.9v0.1h0.9v-0.3
		c0-1.2-0.7-1.6-2.5-1.6h-1.7c-1.5,0-2.4,0.3-2.4,1.7c0,1.6,0.9,1.7,3.2,1.7H35c1,0,1.1,0.2,1.1,0.8s-0.2,0.9-1.3,0.9h-2.3
		c-0.9,0-1.1-0.2-1.1-0.7v-0.5h-0.9v0.5c0,1.3,1.1,1.5,2.2,1.5h2.1c0.9,0,2.3,0,2.3-1.6v-0.4C37,43.5,36.3,43,34.8,43z"/>
	<path class="st0" d="M41.6,42.2h-0.9c-0.5-0.1-1.1,0.1-1.5,0.5v-2h-0.9v5.8h0.9V44c0-0.8,0.3-1.1,1.8-1.1h0.2
		c1.2,0,1.3,0.3,1.3,0.8v2.6h0.9v-2.7C43.4,43.1,43.1,42.2,41.6,42.2z"/>
	<path class="st0" d="M47.8,42.2h-0.9c-1.1,0-2.3,0.2-2.3,1.7v0.9c0,1.5,1.2,1.7,2.3,1.7h0.9c1.1,0,2.3-0.2,2.3-1.7v-0.9
		C50,42.4,48.8,42.2,47.8,42.2z M49.1,43.9v0.8c0,0.8-0.4,1-1.2,1h-1.3c-0.8,0-1.2-0.2-1.2-1v-0.8c0-0.8,0.4-1,1.2-1H48
		C48.7,43,49.1,43.1,49.1,43.9z"/>
	<path class="st0" d="M54.5,42.2h-1c-0.5-0.1-1.1,0.1-1.5,0.5v-0.4h-0.8v4.1h0.9V44c0-0.8,0.3-1.1,1.8-1.1h0.2
		c1.2,0,1.3,0.3,1.3,0.8v2.6h0.9v-2.7C56.3,43.1,56.1,42.2,54.5,42.2z"/>
	<path class="st0" d="M60.4,42.2h-1c-1.2,0-1.8,0.3-1.8,1.1v0.3h0.9v-0.3c0-0.2,0-0.4,0.9-0.4h1c1.1,0,1.3,0.1,1.3,0.7v0.4
		c-0.4-0.2-0.8-0.3-1.3-0.3h-1.1c-1.1,0-1.9,0.1-1.9,1.1v0.3c0,0.9,0.4,1.3,1.4,1.3h1.6c0.7,0,1.1,0,1.3-0.2v0.2h0.9v-2.8
		C62.5,42.3,61.5,42.2,60.4,42.2z M58.3,45.1c0-0.3,0.1-0.5,1-0.5h1c1.1,0,1.4,0.1,1.4,0.5v0.2c0,0.4-0.3,0.5-1.5,0.5h-0.9
		c-0.9,0-0.9-0.2-0.9-0.5L58.3,45.1z"/>
	<path class="st0" d="M67.1,42.2h-1c-0.5-0.1-1.1,0.1-1.5,0.5v-0.4h-0.8v4.1h0.9V44c0-0.8,0.3-1.1,1.8-1.1h0.2
		c1.2,0,1.3,0.3,1.3,0.8v2.6h0.9v-2.7C68.8,43.1,68.6,42.2,67.1,42.2z"/>
</g>
</svg>
